{"title":"Pay the Ghost(2015)MPEG-4[DaScubaDude]","uid":15325157,"size":1032543807,"categoryP":"video","categoryS":"movies","magnet":"?xt=urn:btih:4cec411ee87a19a24dec9b756cb45b899a331360&amp;dn=Pay+the+Ghost%282015%29MPEG-4%5BDaScubaDude%5D&amp;tr=udp%3A%2F%2Ftracker.leechers-paradise.org%3A6969&amp;tr=udp%3A%2F%2Fzer0day.ch%3A1337&amp;tr=udp%3A%2F%2Fopen.demonii.com%3A1337&amp;tr=udp%3A%2F%2Ftracker.coppersurfer.tk%3A6969&amp;tr=udp%3A%2F%2Fexodus.desync.com%3A6969","seeders":2,"leechers":1,"uploader":"dascuba","files":1,"time":1468691956,"description":"Pay the Ghost (2015)\r\nNot Rated | 1h 34min | Drama, Horror, Mystery | 25 September 2015 (USA)\r\nA professor frantically searches for his son who was abducted during a Halloween parade.\r\nDirector: Uli Edel\r\nWriters: Tim Lebbon (novel), Dan Kay (screenplay)\r\nStars: Nicolas Cage, Sarah Wayne Callies, Veronica Ferres |\r\n\r\nGeneral\r\nComplete name                            : Pay the GhostPAY_THE_GHOST_Title1.mp4\r\nFormat                                   : MPEG-4\r\nFormat profile                           : Base Media\r\nCodec ID                                 : isom (isom/iso2/avc1/mp41)\r\nFile size                                : 985 MiB\r\nDuration                                 : 1h 34mn\r\nOverall bit rate                         : 1 464 Kbps\r\nMovie name                               : PAY_THE_GHOST\r\nGenre                                    : Horror\r\nWriting application                      : Lavf54.6.100\r\n\r\nVideo\r\nID                                       : 1\r\nFormat                                   : AVC\r\nFormat/Info                              : Advanced Video Codec\r\nFormat profile                           :   \r\nFormat settings, CABAC                   : No\r\nFormat settings, ReFrames                : 6 frames\r\nCodec ID                                 : avc1\r\nCodec ID/Info                            : Advanced Video Coding\r\nDuration                                 : 1h 34mn\r\nBit rate                                 : 1 206 Kbps\r\nWidth                                    : 720 pixels\r\nHeight                                   : 404 pixels\r\nDisplay aspect ratio                     : 16:9\r\nFrame rate mode                          : Constant\r\nFrame rate                               : 29.970 (30000/1001) fps\r\nColor space                              : YUV\r\nChroma subsampling                       : 4:2:0\r\nBit depth                                : 8 bits\r\nScan type                                : Progressive\r\nBits/(Pixel*Frame)                       : 0.138\r\nStream size                              : 811 MiB (82%)\r\n\r\nAudio\r\nID                                       : 2\r\nFormat                                   : AAC\r\nFormat/Info                              : Advanced Audio Codec\r\nFormat profile                           : LC\r\nCodec ID                                 : 40\r\nDuration                                 : 1h 34mn\r\nBit rate mode                            : Constant\r\nBit rate                                 : 252 Kbps\r\nChannel(s)                               : 2 channels\r\nChannel(s)_Original                      : 6 channels\r\nChannel positions                        : Front: L C R, Side: L R, LFE\r\nSampling rate                            : 44.1 KHz\r\nFrame rate                               : 43.066 fps (1024 spf)\r\nCompression mode                         : Lossy\r\nStream size                              : 169 MiB (17%)\r\nDefault                                  : Yes\r\nAlternate group                          : 1","torrent":{"xt":"urn:btih:4cec411ee87a19a24dec9b756cb45b899a331360","amp;dn":"Pay+the+Ghost%282015%29MPEG-4%5BDaScubaDude%5D","amp;tr":["udp%3A%2F%2Ftracker.leechers-paradise.org%3A6969","udp%3A%2F%2Fzer0day.ch%3A1337","udp%3A%2F%2Fopen.demonii.com%3A1337","udp%3A%2F%2Ftracker.coppersurfer.tk%3A6969","udp%3A%2F%2Fexodus.desync.com%3A6969"],"infoHash":"4cec411ee87a19a24dec9b756cb45b899a331360","infoHashBuffer":{"type":"Buffer","data":[76,236,65,30,232,122,25,162,77,236,155,117,108,180,91,137,154,51,19,96]},"announce":[],"urlList":[]}}